<svg width="24" height="25" viewBox="0 0 24 25" fill="none" xmlns="http://www.w3.org/2000/svg">
<path d="M16.7502 4.37079V2.81079C16.7502 2.40079 16.4102 2.06079 16.0002 2.06079C15.5902 2.06079 15.2502 2.40079 15.2502 2.81079V4.31079H8.75022V2.81079C8.75022 2.40079 8.41022 2.06079 8.00022 2.06079C7.59022 2.06079 7.25022 2.40079 7.25022 2.81079V4.37079C4.55022 4.62079 3.24023 6.23079 3.04023 8.62079C3.02023 8.91079 3.26023 9.15079 3.54023 9.15079H20.4602C20.7502 9.15079 20.9902 8.90079 20.9602 8.62079C20.7602 6.23079 19.4502 4.62079 16.7502 4.37079Z" fill="#000080"/>
<path opacity="0.4" d="M20 10.6509C20.55 10.6509 21 11.1009 21 11.6509V17.8109C21 20.8109 19.5 22.8109 16 22.8109H8C4.5 22.8109 3 20.8109 3 17.8109V11.6509C3 11.1009 3.45 10.6509 4 10.6509H20Z" fill="#000080"/>
<path d="M8.5 15.8107C8.37 15.8107 8.24 15.7807 8.12 15.7307C8 15.6807 7.89001 15.6107 7.79001 15.5207C7.70001 15.4207 7.62999 15.3107 7.57999 15.1907C7.52999 15.0707 7.5 14.9407 7.5 14.8107C7.5 14.6807 7.52999 14.5507 7.57999 14.4307C7.62999 14.3107 7.70001 14.2007 7.79001 14.1007C7.89001 14.0107 8 13.9407 8.12 13.8907C8.36 13.7907 8.64 13.7907 8.88 13.8907C9 13.9407 9.10999 14.0107 9.20999 14.1007C9.29999 14.2007 9.37001 14.3107 9.42001 14.4307C9.47001 14.5507 9.5 14.6807 9.5 14.8107C9.5 14.9407 9.47001 15.0707 9.42001 15.1907C9.37001 15.3107 9.29999 15.4207 9.20999 15.5207C9.10999 15.6107 9 15.6807 8.88 15.7307C8.76 15.7807 8.63 15.8107 8.5 15.8107Z" fill="#000080"/>
<path d="M12 15.8109C11.87 15.8109 11.74 15.7809 11.62 15.7309C11.5 15.6809 11.39 15.6109 11.29 15.5209C11.11 15.3309 11 15.0709 11 14.8109C11 14.5509 11.11 14.2909 11.29 14.1009C11.39 14.0109 11.5 13.9408 11.62 13.8908C11.86 13.7808 12.14 13.7808 12.38 13.8908C12.5 13.9408 12.61 14.0109 12.71 14.1009C12.89 14.2909 13 14.5509 13 14.8109C13 15.0709 12.89 15.3309 12.71 15.5209C12.61 15.6109 12.5 15.6809 12.38 15.7309C12.26 15.7809 12.13 15.8109 12 15.8109Z" fill="#000080"/>
<path d="M8.5 19.3107C8.37 19.3107 8.24 19.2807 8.12 19.2307C8 19.1807 7.89001 19.1107 7.79001 19.0207C7.61001 18.8307 7.5 18.5707 7.5 18.3107C7.5 18.0507 7.61001 17.7907 7.79001 17.6007C7.89001 17.5107 8 17.4407 8.12 17.3907C8.36 17.2907 8.64 17.2907 8.88 17.3907C9 17.4407 9.10999 17.5107 9.20999 17.6007C9.38999 17.7907 9.5 18.0507 9.5 18.3107C9.5 18.5707 9.38999 18.8307 9.20999 19.0207C9.10999 19.1107 9 19.1807 8.88 19.2307C8.76 19.2807 8.63 19.3107 8.5 19.3107Z" fill="#000080"/>
</svg>
