<svg width="48" height="48" viewBox="0 0 48 48" fill="none" xmlns="http://www.w3.org/2000/svg" xmlns:xlink="http://www.w3.org/1999/xlink">
<g opacity="0.4">
<path d="M40.2,13.88C40.2,14.96 39.62,15.94 38.7,16.44L35.22,18.32L32.26,19.9L26.12,23.22C25.46,23.58 24.74,23.76 24,23.76C23.26,23.76 22.54,23.58 21.88,23.22L9.3,16.44C8.38,15.94 7.8,14.96 7.8,13.88C7.8,12.8 8.38,11.82 9.3,11.32L13.24,9.2L16.38,7.5L21.88,4.54C23.2,3.82 24.8,3.82 26.12,4.54L38.7,11.32C39.62,11.82 40.2,12.8 40.2,13.88Z" fill="#000080"/>
</g>
<g opacity="0.4">
<path d="M19.8,25.58L8.1,19.72C7.2,19.26 6.16,19.32 5.3,19.84C4.44,20.36 3.94,21.28 3.94,22.28L3.94,33.34C3.94,35.26 5,36.98 6.72,37.84L18.42,43.68C18.82,43.88 19.26,43.98 19.7,43.98C20.22,43.98 20.74,43.84 21.2,43.54C22.06,43.02 22.56,42.1 22.56,41.1L22.56,30.04C22.58,28.16 21.52,26.44 19.8,25.58Z" fill="#000080"/>
</g>
<g opacity="0.4">
<path d="M44.06,22.3L44.06,33.36C44.06,35.26 43,36.98 41.28,37.84L29.58,43.7C29.18,43.9 28.74,44 28.3,44C27.78,44 27.26,43.86 26.78,43.56C25.94,43.04 25.42,42.12 25.42,41.12L25.42,30.08C25.42,28.16 26.48,26.44 28.2,25.58L32.5,23.44L35.5,21.94L39.9,19.74C40.8,19.28 41.84,19.32 42.7,19.86C43.54,20.38 44.06,21.3 44.06,22.3Z" fill="#000080"/>
</g>
<path d="M45.2,43.28L43.68,41.76C44.48,40.56 44.94,39.12 44.94,37.58C44.94,33.36 41.52,29.94 37.3,29.94C33.08,29.94 29.66,33.36 29.66,37.58C29.66,41.8 33.08,45.22 37.3,45.22C38.84,45.22 40.28,44.76 41.48,43.96L43,45.48C43.3,45.78 43.7,45.94 44.1,45.94C44.5,45.94 44.9,45.78 45.2,45.48C45.8,44.86 45.8,43.88 45.2,43.28Z" fill="#000080"/>
</svg>
