<svg width="24" height="25" viewBox="0 0 24 25" fill="none" xmlns="http://www.w3.org/2000/svg">
<path opacity="0.4" d="M12 22.8108C17.5228 22.8108 22 18.3336 22 12.8108C22 7.28794 17.5228 2.81079 12 2.81079C6.47715 2.81079 2 7.28794 2 12.8108C2 18.3336 6.47715 22.8108 12 22.8108Z" fill="#000080"/>
<path d="M15.7101 16.7408C15.5801 16.7408 15.4501 16.7108 15.3301 16.6308L12.2301 14.7808C11.4601 14.3208 10.8901 13.3108 10.8901 12.4208V8.3208C10.8901 7.9108 11.2301 7.5708 11.6401 7.5708C12.0501 7.5708 12.3901 7.9108 12.3901 8.3208V12.4208C12.3901 12.7808 12.6901 13.3108 13.0001 13.4908L16.1001 15.3408C16.4601 15.5508 16.5701 16.0108 16.3601 16.3708C16.2101 16.6108 15.9601 16.7408 15.7101 16.7408Z" fill="#000080"/>
</svg>
