<svg width="48" height="48" viewBox="0 0 48 48" fill="none" xmlns="http://www.w3.org/2000/svg" xmlns:xlink="http://www.w3.org/1999/xlink">
<path d="M32,25.8L32,34.2C32,41.2 29.2,44 22.2,44L13.8,44C6.8,44 4,41.2 4,34.2L4,25.8C4,18.8 6.8,16 13.8,16L22.2,16C29.2,16 32,18.8 32,25.8Z" fill="#292D32"/>
<g opacity="0.4">
<path d="M34.2,4L25.8,4C18.9,4 16.1,6.74 16.02,13.5L22.2,13.5C30.6,13.5 34.5,17.4 34.5,25.8L34.5,31.98C41.26,31.9 44,29.1 44,22.2L44,13.8C44,6.8 41.2,4 34.2,4Z" fill="#292D32"/>
</g>
</svg>
