<svg width="70" height="71" viewBox="0 0 70 71" fill="none" xmlns="http://www.w3.org/2000/svg">
<circle cx="35" cy="35.3108" r="35" fill="#000080"/>
<path opacity="0.4" d="M52.7188 24.242C52.7188 25.4233 52.0844 26.4951 51.0782 27.0419L47.2719 29.0982L44.0344 30.8264L37.3188 34.4576C36.5969 34.8513 35.8094 35.0483 35 35.0483C34.1906 35.0483 33.4031 34.8513 32.6813 34.4576L18.9219 27.0419C17.9156 26.4951 17.2812 25.4233 17.2812 24.242C17.2812 23.0608 17.9156 21.9888 18.9219 21.4419L23.2313 19.1232L26.6656 17.2639L32.6813 14.0264C34.125 13.2389 35.875 13.2389 37.3188 14.0264L51.0782 21.4419C52.0844 21.9888 52.7188 23.0608 52.7188 24.242Z" fill="white"/>
<path opacity="0.4" d="M30.4064 37.0389L17.6095 30.6295C16.6252 30.1264 15.4877 30.192 14.5471 30.7608C13.6064 31.3295 13.0596 32.3358 13.0596 33.4296V45.5264C13.0596 47.6264 14.2189 49.5076 16.1002 50.4483L28.897 56.8358C29.3345 57.0546 29.8158 57.1639 30.2971 57.1639C30.8658 57.1639 31.4346 57.0108 31.9377 56.6827C32.8783 56.114 33.4252 55.1076 33.4252 54.0139V41.9171C33.4471 39.8608 32.2877 37.9795 30.4064 37.0389Z" fill="white"/>
<path opacity="0.4" d="M56.9407 33.4515V45.5483C56.9407 47.6265 55.7814 49.5077 53.9001 50.4483L41.1033 56.8577C40.6658 57.0764 40.1845 57.1859 39.7032 57.1859C39.1345 57.1859 38.5658 57.0328 38.0408 56.7047C37.122 56.1359 36.5532 55.1296 36.5532 54.0359V41.9608C36.5532 39.8608 37.7126 37.9796 39.5939 37.0389L44.297 34.6983L47.5782 33.0577L52.3908 30.6515C53.3751 30.1484 54.5126 30.1921 55.4533 30.7827C56.372 31.3515 56.9407 32.3578 56.9407 33.4515Z" fill="white"/>
<path d="M58.1873 56.3983L56.5248 54.7358C57.3998 53.4233 57.903 51.8483 57.903 50.1639C57.903 45.5483 54.1623 41.8076 49.5467 41.8076C44.9311 41.8076 41.1904 45.5483 41.1904 50.1639C41.1904 54.7795 44.9311 58.5201 49.5467 58.5201C51.2311 58.5201 52.8061 58.017 54.1186 57.142L55.7811 58.8045C56.1092 59.1327 56.5467 59.3076 56.9842 59.3076C57.4217 59.3076 57.8592 59.1327 58.1873 58.8045C58.8436 58.1264 58.8436 57.0546 58.1873 56.3983Z" fill="white"/>
</svg>
