<svg width="70" height="71" viewBox="0 0 70 71" fill="none" xmlns="http://www.w3.org/2000/svg">
<circle cx="35" cy="35.3105" r="35" fill="#000080"/>
<path opacity="0.4" d="M50.3125 31.548V47.1887C50.2469 53.423 48.5406 54.998 42.0437 54.998H21.3938C14.7876 54.998 13.125 53.3574 13.125 46.8387V31.548C13.125 25.6418 14.5031 23.7387 19.6875 23.4324C20.2125 23.4105 20.7813 23.3887 21.3938 23.3887H42.0437C48.6499 23.3887 50.3125 25.0293 50.3125 31.548Z" fill="white"/>
<path d="M56.875 23.7824V39.073C56.875 44.9793 55.4969 46.8824 50.3125 47.1887V31.548C50.3125 25.0293 48.6499 23.3887 42.0437 23.3887H21.3938C20.7813 23.3887 20.2125 23.4105 19.6875 23.4324C19.7531 17.198 21.4594 15.623 27.9563 15.623H48.6062C55.2124 15.623 56.875 17.2637 56.875 23.7824Z" fill="white"/>
<path d="M23.975 49.6606H20.2124C19.3155 49.6606 18.5718 48.9169 18.5718 48.02C18.5718 47.1231 19.3155 46.3794 20.2124 46.3794H23.975C24.8718 46.3794 25.6156 47.1231 25.6156 48.02C25.6156 48.9169 24.8937 49.6606 23.975 49.6606Z" fill="#292D32"/>
<path d="M36.2032 49.6606H28.6782C27.7813 49.6606 27.0376 48.9169 27.0376 48.02C27.0376 47.1231 27.7813 46.3794 28.6782 46.3794H36.2032C37.1001 46.3794 37.8439 47.1231 37.8439 48.02C37.8439 48.9169 37.122 49.6606 36.2032 49.6606Z" fill="#292D32"/>
<path d="M50.3125 35.0044H13.125V38.2856H50.3125V35.0044Z" fill="#292D32"/>
</svg>
