<svg width="70" height="71" viewBox="0 0 70 71" fill="none" xmlns="http://www.w3.org/2000/svg">
<circle cx="35" cy="35.3108" r="35" fill="#000080"/>
<path opacity="0.4" d="M24.3031 22.0983L44.0344 15.514C52.8938 12.5608 57.7063 17.3952 54.775 26.2546L48.1906 45.9858C43.7719 59.264 36.5094 59.264 32.0906 45.9858L30.1438 40.1233L24.2813 38.1765C11.025 33.7796 11.025 26.539 24.3031 22.0983Z" fill="white"/>
<path d="M35.2627 34.5015L43.5971 26.1453L35.2627 34.5015Z" fill="white"/>
<path d="M35.2626 36.142C34.847 36.142 34.4313 35.9889 34.1032 35.6608C33.4688 35.0264 33.4688 33.9764 34.1032 33.342L42.4157 24.9858C43.0501 24.3514 44.1001 24.3514 44.7345 24.9858C45.3688 25.6202 45.3688 26.6702 44.7345 27.3045L36.422 35.6608C36.0938 35.967 35.6782 36.142 35.2626 36.142Z" fill="white"/>
</svg>
