<svg width="70" height="71" viewBox="0 0 70 71" fill="none" xmlns="http://www.w3.org/2000/svg">
<circle cx="35" cy="35.3108" r="35" fill="#000080"/>
<path opacity="0.4" d="M53.8564 27.5452C51.5595 17.4389 42.7439 12.8889 35.0001 12.8889C35.0001 12.8889 35.0001 12.8889 34.9783 12.8889C27.2564 12.8889 18.4189 17.417 16.122 27.5233C13.5626 38.8108 20.4751 48.3702 26.7314 54.3858C29.0501 56.617 32.0251 57.7327 35.0001 57.7327C37.9751 57.7327 40.9501 56.617 43.247 54.3858C49.5033 48.3702 56.4158 38.8327 53.8564 27.5452Z" fill="white"/>
<path d="M35 38.5046C38.8056 38.5046 41.8906 35.4196 41.8906 31.614C41.8906 27.8084 38.8056 24.7234 35 24.7234C31.1944 24.7234 28.1094 27.8084 28.1094 31.614C28.1094 35.4196 31.1944 38.5046 35 38.5046Z" fill="white"/>
</svg>
