<svg width="22" height="12" viewBox="0 0 22 12" fill="none" xmlns="http://www.w3.org/2000/svg" xmlns:xlink="http://www.w3.org/1999/xlink">
<path d="M1.278,8.207C0.497,8.988 0.497,10.255 1.278,11.036C2.059,11.817 3.326,11.817 4.107,11.036L1.278,8.207ZM10.692,1.622L12.107,0.207C11.732,-0.168 11.223,-0.378 10.692,-0.378C10.162,-0.378 9.653,-0.168 9.278,0.207L10.692,1.622ZM17.278,11.036C18.059,11.817 19.326,11.817 20.107,11.036C20.888,10.255 20.888,8.988 20.107,8.207L17.278,11.036ZM4.107,11.036L12.107,3.036L9.278,0.207L1.278,8.207L4.107,11.036ZM9.278,3.036L17.278,11.036L20.107,8.207L12.107,0.207L9.278,3.036Z" fill="#131A29"/>
</svg>
