<svg width="282" height="200" viewBox="0 0 282 200" fill="none" xmlns="http://www.w3.org/2000/svg" xmlns:xlink="http://www.w3.org/1999/xlink">
<path d="M255.294,184.215C250.248,186.421 244.252,187.306 238.402,188.147C206.12,192.799 173.736,197.462 140.861,199.247C133.052,199.674 125.217,199.921 117.356,199.99C116.832,199.994 116.308,199.997 115.784,199.997C114.096,200.003 112.407,200 110.717,199.987C87.735,199.809 64.825,197.813 42.938,193.091C33.623,191.083 24.405,188.542 16.618,184.491C10.459,181.288 5.232,177.043 2.377,172.149C1.632,170.889 1.047,169.541 0.636,168.136C0.303,166.98 0.1,165.791 0.031,164.591C0.002,164.158 -0.007,163.725 0.005,163.295C0.031,162.031 0.186,160.772 0.467,159.539C1.295,155.821 3.174,152.16 5.562,148.608C5.574,148.593 5.584,148.574 5.596,148.558C5.876,148.141 6.163,147.726 6.459,147.313C6.61,147.099 6.764,146.886 6.917,146.676C8.841,144.028 11.002,141.446 13.164,138.958C14.962,136.887 16.788,134.775 18.52,132.626C18.865,132.196 19.207,131.764 19.546,131.33C20.897,129.613 22.16,127.827 23.329,125.981C23.461,125.768 23.593,125.554 23.721,125.341C24.098,124.717 24.455,124.089 24.791,123.459C25.966,121.316 26.845,119.023 27.402,116.644C27.499,116.214 27.581,115.781 27.643,115.348C27.921,113.592 27.927,111.804 27.662,110.046C27.637,109.877 27.609,109.707 27.574,109.541C27.104,106.978 26.049,104.524 24.685,102.124C24.409,101.635 24.117,101.148 23.816,100.662C23.728,100.521 23.643,100.383 23.552,100.241C23.367,99.95 23.179,99.658 22.987,99.366C20.565,95.692 17.66,92.1 15.316,88.394C14.549,87.196 13.847,85.957 13.214,84.683C13.004,84.253 12.803,83.82 12.621,83.387C12.211,82.441 11.868,81.467 11.595,80.472C10.981,78.199 10.823,75.826 11.131,73.492L11.131,73.488C11.349,71.846 11.772,70.237 12.392,68.701C12.568,68.265 12.756,67.832 12.963,67.405C14.307,64.647 16.134,62.153 18.36,60.041C20.089,58.382 21.999,56.922 24.054,55.69C24.286,55.545 24.525,55.407 24.763,55.269C25.438,54.88 26.127,54.512 26.831,54.165C27.072,54.039 27.314,53.92 27.555,53.807C29.016,53.111 30.511,52.491 32.036,51.95C32.205,51.887 32.375,51.828 32.547,51.771C32.905,51.646 33.266,51.526 33.626,51.41C34.26,51.203 34.903,51.012 35.553,50.83C48.893,47.052 64.998,47.617 79.546,49.54C80.892,49.719 82.239,49.906 83.587,50.102C84.641,50.249 85.696,50.406 86.753,50.566C90.913,51.191 95.077,51.856 99.246,52.474C102.522,52.96 105.8,53.418 109.082,53.807C114.997,54.552 120.951,54.946 126.912,54.987C129.968,54.987 133.027,54.865 136.089,54.579C138.141,54.388 140.173,54.13 142.185,53.807C147.653,52.904 153.065,51.688 158.393,50.165C161.725,49.242 165.023,48.254 168.305,47.269C169.971,46.767 171.642,46.268 173.318,45.772C174.95,45.289 176.586,44.817 178.228,44.357C181.011,43.579 183.816,42.848 186.652,42.196C191.207,41.124 195.825,40.344 200.48,39.861C201.308,39.78 202.142,39.711 202.98,39.654C204.19,39.573 205.408,39.52 206.628,39.497C208.148,39.463 209.668,39.475 211.184,39.541C211.62,39.557 212.054,39.579 212.49,39.604C213.192,39.648 213.892,39.701 214.588,39.764C214.674,39.77 214.754,39.78 214.836,39.786C216.286,39.924 217.72,40.109 219.128,40.344C222.968,40.947 226.714,42.035 230.278,43.582L230.288,43.585C231.144,43.965 231.976,44.376 232.78,44.818C234.26,45.628 235.654,46.587 236.94,47.68C238.06,48.628 239.078,49.692 239.974,50.855C240.124,51.049 240.268,51.247 240.404,51.445C243.59,55.966 244.212,61.271 240.962,65.73L241.09,64.462C240.72,65.441 240.346,66.423 239.98,67.405C239.816,67.835 239.654,68.268 239.494,68.701C238.744,70.702 238.008,72.713 237.284,74.734L237.284,74.747C237.058,75.371 236.84,75.983 236.622,76.61L236.622,76.623C235.832,78.872 235.072,81.122 234.358,83.387C234.222,83.817 234.084,84.25 233.952,84.683C233.79,85.213 233.628,85.743 233.47,86.274C233.306,86.816 233.146,87.361 232.99,87.908C232.926,88.125 232.868,88.344 232.804,88.564C231.784,92.159 230.904,95.764 230.216,99.366C230.132,99.799 230.052,100.232 229.974,100.662C229.934,100.894 229.892,101.129 229.852,101.362C229.808,101.616 229.768,101.87 229.726,102.124C228.994,106.494 228.626,110.917 228.622,115.348C228.622,115.781 228.628,116.214 228.638,116.644C228.69,118.924 228.868,121.199 229.172,123.459C229.256,124.086 229.352,124.714 229.456,125.341C229.796,127.362 230.25,129.361 230.816,131.33C230.938,131.763 231.07,132.196 231.204,132.626C232.256,135.969 233.636,139.199 235.324,142.271C236.142,143.761 237.042,145.229 238.018,146.676C238.164,146.889 238.308,147.102 238.454,147.313C238.744,147.73 239.04,148.145 239.346,148.558C239.358,148.574 239.372,148.593 239.384,148.608C242.36,152.618 245.772,156.284 249.558,159.539C250.954,160.754 252.414,161.931 253.938,163.072C254.036,163.144 254.136,163.22 254.234,163.295C254.81,163.722 255.4,164.155 255.988,164.591C259.072,166.881 262.126,169.297 263.342,172.149C263.606,172.752 263.778,173.392 263.852,174.047C264.308,178.151 260.338,182.007 255.294,184.215Z" fill="#F2F2F2"/>
<path d="M229.027,53.808C228.943,54.436 228.865,55.063 228.787,55.691L22.628,55.691C22.361,55.06 22.082,54.433 21.799,53.808L229.027,53.808Z" fill="#FFFFFF"/>
<path d="M227.45,78.908L26.214,78.908C26.311,78.284 26.393,77.653 26.455,77.025L227.434,77.025C227.434,77.653 227.44,78.28 227.45,78.908Z" fill="#FFFFFF"/>
<path d="M230.016,102.124L24.685,102.124C24.409,101.635 24.117,101.148 23.816,100.662C23.728,100.521 23.643,100.383 23.552,100.242L229.626,100.242C229.698,100.615 229.774,100.988 229.852,101.362C229.906,101.616 229.962,101.87 230.016,102.124Z" fill="#FFFFFF"/>
<path d="M229.456,125.341L22.834,125.341C22.47,124.886 22.096,124.441 21.723,124.011C21.566,123.829 21.406,123.644 21.246,123.459L229.172,123.459C229.256,124.086 229.352,124.714 229.456,125.341Z" fill="#FFFFFF"/>
<path d="M239.346,148.558L5.596,148.558C5.876,148.141 6.163,147.726 6.459,147.313C6.61,147.099 6.764,146.886 6.917,146.676L238.018,146.676C238.162,146.889 238.308,147.103 238.454,147.313C238.744,147.73 239.04,148.145 239.346,148.558Z" fill="#FFFFFF"/>
<path d="M170.924,1.682C170.651,1.445 170.36,1.231 170.052,1.042L170.052,1.039C170.024,1.02 169.995,1.003 169.964,0.988C169.614,0.775 169.244,0.594 168.86,0.449C168.08,0.15 167.251,-0.002 166.416,0L90.49,0C88.66,0.002 86.905,0.73 85.611,2.024C84.317,3.318 83.589,5.072 83.587,6.902L83.587,155.931C83.586,156.633 83.693,157.33 83.904,157.999C83.926,158.071 83.951,158.143 83.976,158.212C83.995,158.269 84.014,158.322 84.036,158.375C84.138,158.652 84.261,158.92 84.403,159.179C84.469,159.301 84.538,159.42 84.61,159.539C84.676,159.649 84.745,159.753 84.82,159.856C84.855,159.91 84.892,159.963 84.933,160.016C84.937,160.026 84.944,160.035 84.952,160.041C85.018,160.132 85.087,160.223 85.162,160.311C85.278,160.452 85.401,160.59 85.526,160.719C85.611,160.81 85.699,160.895 85.787,160.976C87.062,162.17 88.743,162.834 90.49,162.834L166.416,162.834C168.246,162.833 170.001,162.105 171.296,160.811C172.59,159.517 173.317,157.762 173.318,155.931L173.318,6.902C173.319,5.911 173.105,4.932 172.692,4.03C172.279,3.129 171.676,2.328 170.924,1.682Z" fill="#E6E6E6"/>
<path d="M169.083,78.907L169.073,78.907C168.86,78.901 168.647,78.907 168.433,78.907L157.364,78.907C156.751,78.872 156.136,78.872 155.523,78.907C155.133,78.934 154.756,79.059 154.428,79.271C154.157,79.459 153.935,79.709 153.781,80C153.627,80.292 153.545,80.617 153.543,80.946C153.554,81.492 153.778,82.012 154.169,82.393C154.559,82.775 155.084,82.987 155.629,82.986C155.943,82.992 156.26,82.986 156.574,82.986L167.734,82.986C168.92,82.986 170.281,83.136 170.906,81.84C171.05,81.53 171.116,81.188 171.095,80.846C171.075,80.503 170.969,80.171 170.788,79.88C170.607,79.589 170.357,79.348 170.059,79.178C169.761,79.008 169.425,78.915 169.083,78.907Z" fill="#CCCCCC"/>
<path d="M162.326,96.164C164.059,96.164 165.463,94.759 165.463,93.026C165.463,91.294 164.059,89.889 162.326,89.889C160.593,89.889 159.188,91.294 159.188,93.026C159.188,94.759 160.593,96.164 162.326,96.164Z" fill="#CCCCCC"/>
<path d="M162.326,94.281C163.019,94.281 163.581,93.72 163.581,93.026C163.581,92.333 163.019,91.771 162.326,91.771C161.633,91.771 161.071,92.333 161.071,93.026C161.071,93.72 161.633,94.281 162.326,94.281Z" fill="#F2F2F2"/>
<path d="M89.233,127.692C88.138,128.782 87.271,130.078 86.68,131.505C86.088,132.932 85.785,134.462 85.788,136.006C85.788,137.928 86.551,139.77 87.91,141.129C89.268,142.487 91.111,143.251 93.032,143.251L168.902,143.251C170.069,143.251 170.433,144.007 169.646,144.867C169.36,145.177 169.053,145.127 168.745,145.133C167.349,145.158 165.947,145.133 164.547,145.133L97.547,145.133C96.002,145.133 94.473,145.438 93.046,146.029C91.619,146.62 90.323,147.486 89.231,148.579C88.139,149.671 87.273,150.968 86.682,152.395C86.091,153.822 85.787,155.351 85.788,156.896L85.788,160.977C84.913,160.164 84.265,159.139 83.905,158L83.905,157.291C83.906,156.358 83.799,155.429 83.588,154.52L83.588,136.066C83.8,135.264 83.906,134.439 83.905,133.609C83.906,132.793 83.8,131.979 83.588,131.19L83.588,115.18C83.799,114.378 83.906,113.552 83.905,112.723C83.906,111.907 83.8,111.093 83.588,110.304L83.588,94.291C83.799,93.489 83.906,92.663 83.905,91.834L83.905,78.754L85.788,78.754L85.788,86.083C85.788,90.166 87.41,94.081 90.296,96.967C93.183,99.854 97.098,101.475 101.18,101.476L168.908,101.476C170.075,101.476 170.442,102.232 169.652,103.091C169.363,103.402 169.053,103.355 168.745,103.358C167.349,103.383 165.947,103.358 164.547,103.358L97.547,103.358C94.428,103.359 91.437,104.598 89.231,106.804C87.026,109.01 85.788,112.001 85.788,115.12C85.788,117.042 86.551,118.884 87.91,120.243C89.268,121.601 91.111,122.365 93.032,122.365L168.902,122.365C170.069,122.365 170.433,123.118 169.646,123.981C169.36,124.291 169.053,124.241 168.745,124.247C167.349,124.272 165.947,124.247 164.547,124.247L97.547,124.247C96.002,124.245 94.472,124.548 93.046,125.139C91.619,125.73 90.323,126.598 89.233,127.692Z" fill="#CCCCCC"/>
<path d="M169.646,43.213C169.36,43.524 169.053,43.474 168.745,43.48C167.349,43.505 165.947,43.48 164.547,43.48L97.547,43.48C96.002,43.48 94.473,43.784 93.046,44.375C91.619,44.967 90.323,45.833 89.231,46.925C88.139,48.018 87.273,49.314 86.682,50.741C86.091,52.168 85.787,53.698 85.788,55.242L85.788,59.324C84.913,58.511 84.265,57.485 83.905,56.346L83.905,55.637C83.906,54.705 83.799,53.775 83.588,52.867L83.588,34.413C83.8,33.611 83.906,32.785 83.905,31.956C83.906,31.139 83.8,30.326 83.588,29.537L83.588,6.903C83.59,5.073 84.318,3.319 85.612,2.025C86.906,0.731 88.661,0.003 90.491,0.001L166.417,0.001C167.252,-0.001 168.081,0.151 168.861,0.45C169.245,0.595 169.615,0.776 169.966,0.989C169.885,1.154 169.779,1.306 169.652,1.438C169.363,1.749 169.053,1.701 168.745,1.705C167.349,1.73 165.947,1.705 164.547,1.705L97.547,1.705C94.428,1.705 91.437,2.945 89.231,5.151C87.026,7.356 85.788,10.348 85.788,13.467C85.788,15.388 86.551,17.231 87.91,18.589C89.268,19.948 91.111,20.711 93.032,20.711L168.902,20.711C170.069,20.711 170.433,21.464 169.646,22.327C169.36,22.638 169.053,22.588 168.745,22.594C167.349,22.619 165.947,22.594 164.547,22.594L97.547,22.594C94.428,22.594 91.438,23.834 89.233,26.039C87.027,28.244 85.788,31.234 85.788,34.353C85.788,36.274 86.551,38.117 87.91,39.475C89.268,40.834 91.111,41.597 93.032,41.597L168.902,41.597C170.069,41.597 170.433,42.353 169.646,43.213Z" fill="#CCCCCC"/>
<path d="M182.307,70.853C184.906,70.853 187.013,68.746 187.013,66.147C187.013,63.548 184.906,61.441 182.307,61.441C179.708,61.441 177.601,63.548 177.601,66.147C177.601,68.746 179.708,70.853 182.307,70.853Z" fill="#FFFFFF"/>
<path d="M60.596,148.558C60.009,152.888 56.498,156.697 52.401,158.545C51.521,158.94 50.614,159.272 49.687,159.539C45.618,160.728 41.219,160.779 36.94,160.804C32.616,160.832 28.293,160.859 23.969,160.885C20.559,160.907 17.039,160.907 13.889,159.599C13.842,159.58 13.795,159.561 13.751,159.539C10.66,158.203 8.022,155.269 8.097,151.909C8.129,150.727 8.464,149.574 9.07,148.558C9.471,147.875 9.954,147.243 10.506,146.676C12.223,144.897 14.601,143.504 16.828,142.384C20.882,140.348 25.519,137.643 25.958,133.128C26.213,130.524 24.945,128.124 23.329,125.981C23.169,125.765 23.003,125.551 22.834,125.341C22.47,124.886 22.096,124.441 21.723,124.011C21.566,123.829 21.406,123.644 21.246,123.459C19.128,121.005 16.985,118.31 16.904,115.104C16.819,111.75 20.565,108.374 23.401,109.958C24.791,109.82 26.182,109.681 27.574,109.541C29.281,109.372 30.986,109.201 32.688,109.03C33.068,108.995 33.444,108.957 33.821,108.917C37.363,108.565 40.903,108.212 44.441,107.856C46.016,107.699 47.864,107.643 48.887,108.851C50.001,110.172 49.423,112.255 48.322,113.585C47.221,114.915 45.693,115.854 44.655,117.231C43.318,119.007 43.004,121.253 43.39,123.459C43.501,124.099 43.667,124.729 43.886,125.341C44.274,126.432 44.81,127.465 45.48,128.41C47.801,131.666 51.24,133.91 54.296,136.489C57.352,139.071 60.213,142.349 60.634,146.324C60.646,146.441 60.656,146.56 60.662,146.676C60.704,147.304 60.682,147.935 60.596,148.558Z" fill="#000080"/>
<path d="M35.753,112.384C32.67,109.339 30.044,105.863 27.957,102.066C25.876,98.288 24.34,94.235 23.392,90.028C22.431,85.757 22.113,81.368 22.448,77.004C23.142,68.115 26.427,59.626 31.895,52.584C32.229,52.156 32.571,51.734 32.92,51.319C33.311,50.854 33.973,51.523 33.586,51.984C28.006,58.675 24.51,66.855 23.531,75.512C22.823,82.128 23.614,88.817 25.845,95.085C28.076,101.353 31.69,107.038 36.418,111.718C36.85,112.144 36.185,112.81 35.753,112.384Z" fill="#309F30"/>
<path d="M31.515,53.383C31.896,53.241 32.27,53.078 32.633,52.896C32.652,52.924 32.67,52.953 32.688,52.981L31.515,53.383Z" fill="#E6E6E6"/>
<path d="M31.101,41.277C32.416,39.628 34.932,38.889 36.751,39.956C37.972,40.671 38.702,42.061 38.84,43.469C38.93,44.889 38.625,46.307 37.958,47.564C36.808,49.871 34.939,51.743 32.633,52.896C31.503,51.153 30.444,49.321 29.993,47.295C29.534,45.236 29.785,42.926 31.101,41.277Z" fill="#309F30"/>
<path d="M14.858,53.042C14.181,50.341 14.098,47.526 14.615,44.79C15.131,42.054 16.234,39.462 17.848,37.193C18.181,42.713 23.965,46.228 26.083,51.336C26.731,52.935 27.011,54.658 26.903,56.38C26.795,58.101 26.3,59.776 25.457,61.28L25.138,65.469C22.629,64.264 20.41,62.529 18.635,60.383C16.86,58.238 15.572,55.733 14.858,53.042Z" fill="#309F30"/>
<path d="M4.613,68.706C7.505,73.419 14.263,73.796 18.537,77.305C19.862,78.41 20.921,79.799 21.635,81.368C22.35,82.938 22.703,84.648 22.667,86.373L24.359,90.218C21.575,90.356 18.795,89.879 16.216,88.82C13.637,87.762 11.323,86.149 9.438,84.096C7.553,82.042 6.143,79.599 5.309,76.939C4.476,74.279 4.238,71.468 4.613,68.706Z" fill="#309F30"/>
<path d="M31.252,79.013C33.428,80.756 35.193,82.956 36.422,85.458C37.651,87.96 38.314,90.702 38.363,93.489C38.413,96.276 37.848,99.04 36.709,101.584C35.57,104.128 33.885,106.39 31.773,108.209L30.348,104.257C29.134,103.033 28.21,101.55 27.646,99.92C27.083,98.29 26.893,96.554 27.091,94.841C27.769,89.353 32.405,84.422 31.252,79.013Z" fill="#309F30"/>
<path d="M159.515,41.886C159.515,43.567 159.38,45.246 159.11,46.906C158.997,47.606 158.86,48.297 158.699,48.98C158.639,49.231 158.58,49.482 158.514,49.73C158.307,50.53 158.065,51.32 157.795,52.092C155.233,59.449 150.002,65.575 143.137,69.257C142.695,69.499 142.243,69.728 141.788,69.944C141.211,70.22 140.624,70.478 140.028,70.716C139.676,70.857 139.322,70.992 138.964,71.121C132.596,73.401 125.659,73.55 119.198,71.544C118.881,71.447 118.571,71.344 118.26,71.234C117.62,71.014 116.992,70.774 116.375,70.512C115.961,70.336 115.553,70.154 115.151,69.96C111.428,68.191 108.093,65.701 105.339,62.634C102.585,59.567 100.468,55.984 99.109,52.092C98.843,51.317 98.601,50.53 98.394,49.73C98.328,49.482 98.268,49.231 98.209,48.98C98.049,48.296 97.912,47.605 97.798,46.906C96.722,40.293 97.805,33.509 100.888,27.56C100.907,27.526 100.926,27.488 100.945,27.454C101.454,26.483 102.016,25.541 102.626,24.63L102.749,24.451C105.862,19.863 110.143,16.189 115.151,13.809C115.556,13.618 115.964,13.432 116.375,13.26C116.974,13.009 117.579,12.774 118.197,12.56C118.527,12.444 118.863,12.334 119.198,12.228C125.659,10.222 132.596,10.371 138.964,12.651C139.344,12.786 139.72,12.93 140.094,13.081C140.668,13.313 141.233,13.562 141.788,13.828C142.243,14.044 142.693,14.272 143.137,14.512C147.56,16.886 151.342,20.296 154.159,24.451L154.281,24.63C154.892,25.541 155.453,26.483 155.963,27.454C155.982,27.488 156.001,27.526 156.019,27.56C158.323,31.984 159.523,36.899 159.515,41.886Z" fill="#FFFFFF"/>
<path d="M255.294,184.215C250.248,186.421 244.252,187.306 238.402,188.147C206.12,192.8 173.736,197.462 140.861,199.247C133.052,199.674 125.217,199.922 117.356,199.991C116.832,199.994 116.308,199.997 115.784,199.997C114.096,200.003 112.407,200 110.717,199.987C87.735,199.809 64.825,197.813 42.938,193.091C33.623,191.083 24.405,188.542 16.618,184.492C10.459,181.288 5.232,177.043 2.377,172.149C1.632,170.889 1.047,169.541 0.636,168.136C0.303,166.981 0.1,165.791 0.031,164.591C0.002,164.158 -0.007,163.725 0.005,163.295C0.031,162.031 0.186,160.772 0.467,159.539L249.558,159.539C250.954,160.754 252.414,161.931 253.938,163.072C254.036,163.144 254.136,163.22 254.234,163.295C254.81,163.722 255.4,164.155 255.988,164.591C259.072,166.881 262.126,169.297 263.342,172.149C263.606,172.753 263.778,173.392 263.852,174.047C264.308,178.151 260.338,182.007 255.294,184.215Z" fill="#CCCCCC"/>
<path d="M173.632,169.56C173.632,169.052 173.66,168.538 173.629,168.029C173.588,167.392 173.309,166.793 172.845,166.353C172.382,165.914 171.77,165.665 171.131,165.657C170.811,165.651 170.491,165.657 170.171,165.657L85.953,165.657C85.606,165.642 85.259,165.697 84.933,165.82C84.608,165.942 84.311,166.13 84.061,166.371C83.81,166.612 83.611,166.901 83.476,167.221C83.34,167.541 83.272,167.886 83.273,168.233C83.258,170.062 83.273,171.892 83.273,173.721L83.273,176.908C83.273,177.423 83.239,177.956 83.289,178.471C83.357,179.085 83.648,179.654 84.107,180.068C84.567,180.482 85.162,180.713 85.78,180.717C85.881,180.72 85.984,180.717 86.085,180.717L171.141,180.717C171.809,180.706 172.447,180.431 172.913,179.952C173.38,179.473 173.638,178.829 173.632,178.16C173.638,177.508 173.632,176.852 173.632,176.196L173.632,169.56Z" fill="#E6E6E6"/>
<path d="M169.084,85.183C170.817,85.183 172.221,83.778 172.221,82.045C172.221,80.313 170.817,78.908 169.084,78.908C167.351,78.908 165.946,80.313 165.946,82.045C165.946,83.778 167.351,85.183 169.084,85.183Z" fill="#CCCCCC"/>
<path d="M246.951,17.613L246.951,45.937C246.946,46.399 247.11,46.846 247.414,47.195C247.718,47.543 248.14,47.766 248.598,47.823C248.659,47.827 248.72,47.831 248.781,47.831C249.234,47.832 249.672,47.662 250.006,47.357C250.194,47.185 250.343,46.976 250.446,46.743C250.549,46.511 250.602,46.26 250.603,46.006L250.603,17.402L246.951,17.613Z" fill="#FFA500"/>
<path d="M211.184,17.613L211.184,45.937C211.179,46.399 211.343,46.846 211.647,47.195C211.951,47.543 212.373,47.766 212.831,47.823C212.892,47.827 212.953,47.831 213.014,47.831C213.467,47.832 213.905,47.662 214.239,47.357C214.427,47.185 214.576,46.976 214.679,46.743C214.782,46.511 214.835,46.26 214.836,46.006L214.836,17.402L211.184,17.613Z" fill="#FFA500"/>
<path d="M262.965,46.497C262.961,45.855 262.73,45.235 262.312,44.747C261.895,44.26 261.318,43.936 260.684,43.833L258.563,43.485L254.911,42.886L250.603,42.18L246.951,41.577L221.767,37.442C221.394,37.382 221.013,37.399 220.647,37.493L214.836,38.999L212.489,39.604L211.532,39.852L211.529,39.852L211.526,39.855L211.184,39.943L207.724,40.837L206.629,41.119L206.293,41.204L202.98,42.061L196.633,43.705C196.209,43.814 195.818,44.025 195.494,44.32L195.494,44.326C195.211,44.579 194.984,44.889 194.83,45.235C194.675,45.582 194.596,45.957 194.596,46.337L194.596,78.235C194.595,78.462 194.625,78.688 194.684,78.907C194.812,79.397 195.073,79.841 195.438,80.192C195.802,80.543 196.257,80.785 196.752,80.893L232.804,88.564L236.39,89.326C236.542,89.36 236.696,89.378 236.852,89.38C236.887,89.385 236.923,89.387 236.958,89.386C237.079,89.385 237.2,89.377 237.319,89.361L237.322,89.358C237.477,89.34 237.629,89.306 237.777,89.257L250.603,85.207L261.327,81.822C261.883,81.649 262.368,81.301 262.711,80.83C263.053,80.359 263.235,79.79 263.228,79.208L262.965,46.497Z" fill="#FFFFFF"/>
<path d="M260.583,46.513C260.583,46.433 260.554,46.355 260.502,46.295C260.449,46.234 260.377,46.195 260.298,46.183L260.031,46.139L258.563,45.898L258.419,45.873L258.415,45.873L258.409,45.87L254.911,45.299L250.603,44.589L246.951,43.99L221.381,39.789C221.362,39.789 221.346,39.786 221.324,39.786C221.297,39.785 221.269,39.79 221.243,39.799L219.128,40.344L216.898,40.922L214.836,41.455L211.184,42.4L210.849,42.487L210.845,42.487L206.629,43.579L202.98,44.52L200.573,45.145L199.008,45.55L199.002,45.553L197.229,46.008C197.156,46.026 197.092,46.069 197.046,46.129C197,46.188 196.976,46.262 196.978,46.337L196.978,78.236C196.978,78.313 197.005,78.387 197.053,78.447C197.102,78.507 197.169,78.549 197.245,78.565L198.851,78.907L233.47,86.274L236.714,86.964L236.717,86.964L236.886,86.998C236.943,87.012 237.003,87.01 237.059,86.992L237.395,86.885L246.873,83.892L246.876,83.892L250.518,82.744L260.612,79.553C260.681,79.532 260.741,79.489 260.784,79.431C260.827,79.373 260.85,79.302 260.85,79.23L260.583,46.513Z" fill="#000080"/>
<path d="M262.965,46.497C262.961,45.855 262.73,45.235 262.312,44.747C261.895,44.26 261.318,43.936 260.684,43.833L258.563,43.485L254.911,42.886L250.603,42.18L246.951,41.577L221.767,37.442C221.394,37.382 221.013,37.399 220.647,37.493L214.836,38.999L212.489,39.604L211.532,39.852L211.529,39.852L211.526,39.855L211.184,39.943L207.724,40.837L206.629,41.119L206.293,41.204L202.98,42.061L196.633,43.705C196.209,43.814 195.818,44.025 195.494,44.32L195.494,44.326C195.211,44.579 194.984,44.889 194.83,45.235C194.675,45.582 194.596,45.957 194.596,46.337L194.596,78.235C194.595,78.462 194.625,78.688 194.684,78.907C194.812,79.397 195.073,79.841 195.438,80.192C195.802,80.543 196.257,80.785 196.752,80.893L232.804,88.564L236.39,89.326C236.542,89.36 236.696,89.378 236.852,89.38C236.887,89.385 236.923,89.387 236.958,89.386C237.079,89.385 237.2,89.377 237.319,89.361L237.322,89.358C237.477,89.34 237.629,89.306 237.777,89.257L250.603,85.207L261.327,81.822C261.883,81.649 262.368,81.301 262.711,80.83C263.053,80.359 263.235,79.79 263.228,79.208L262.965,46.497ZM261.123,81.175L250.521,84.523L246.948,85.652L237.57,88.614C237.517,88.63 237.463,88.642 237.413,88.655C237.19,88.703 236.96,88.717 236.732,88.696L236.729,88.696C236.667,88.686 236.601,88.674 236.535,88.661L232.989,87.908L196.89,80.228C196.548,80.154 196.231,79.993 195.969,79.762C195.706,79.531 195.507,79.237 195.39,78.907C195.316,78.691 195.278,78.464 195.277,78.235L195.277,46.337C195.277,45.832 195.463,45.344 195.801,44.969L195.804,44.969L195.804,44.966C196.026,44.722 196.304,44.536 196.614,44.423C196.675,44.398 196.738,44.377 196.802,44.36L202.98,42.767L206.629,41.822L207.011,41.719L207.021,41.719L211.184,40.646L213.064,40.159L214.588,39.764L214.836,39.701L220.813,38.155C220.98,38.111 221.152,38.089 221.324,38.089C221.436,38.089 221.547,38.098 221.657,38.114L246.951,42.268L250.603,42.867L254.911,43.573L258.563,44.175L260.574,44.505C260.962,44.567 261.323,44.741 261.612,45.007L261.619,45.007C261.826,45.197 261.992,45.428 262.106,45.684C262.22,45.941 262.281,46.219 262.284,46.5L262.547,79.214C262.553,79.651 262.417,80.078 262.16,80.431C261.904,80.784 261.54,81.045 261.123,81.175Z" fill="#000080"/>
<path d="M262.057,45.577C262.03,45.594 262.001,45.607 261.971,45.616L250.523,48.71L246.96,49.673L236.824,52.412C236.795,52.419 236.765,52.423 236.735,52.423C236.715,52.423 236.695,52.422 236.674,52.419L195.805,44.968L195.669,44.943C195.58,44.926 195.502,44.875 195.45,44.801C195.399,44.727 195.38,44.635 195.396,44.547C195.412,44.458 195.463,44.379 195.537,44.328C195.611,44.276 195.702,44.256 195.791,44.272L196.613,44.422L236.722,51.735L245.458,49.374L250.344,48.053L261.615,45.006L261.794,44.959C261.872,44.938 261.954,44.946 262.026,44.98C262.099,45.014 262.157,45.072 262.191,45.144C262.199,45.162 262.206,45.18 262.211,45.199C262.23,45.27 262.225,45.345 262.197,45.414C262.169,45.482 262.12,45.539 262.057,45.577Z" fill="#000080"/>
<path d="M237.075,89.464C236.986,89.464 236.9,89.429 236.836,89.366C236.772,89.303 236.736,89.217 236.735,89.128L236.396,52.087C236.395,51.997 236.43,51.91 236.493,51.846C236.556,51.781 236.642,51.745 236.732,51.744L236.735,51.744C236.825,51.744 236.911,51.779 236.975,51.842C237.038,51.905 237.074,51.991 237.075,52.08L237.415,89.121C237.416,89.212 237.381,89.298 237.318,89.363C237.255,89.427 237.168,89.464 237.078,89.464L237.075,89.464Z" fill="#000080"/>
<path d="M250.523,84.958L246.96,85.921L245.458,49.374L207.132,41.748C207.095,41.742 207.057,41.733 207.021,41.721C206.727,41.637 206.47,41.456 206.292,41.207L211.525,39.852L213.063,40.158L249.429,47.392C249.62,47.43 249.801,47.508 249.959,47.622C250.117,47.737 250.248,47.884 250.344,48.053C250.458,48.25 250.521,84.723 250.523,84.958Z" fill="#FFA500"/>
<path d="M269.773,10.297C269.149,10.131 268.518,9.971 267.894,9.814L267.894,6.965C267.899,5.94 267.511,4.952 266.811,4.204C266.505,3.871 266.142,3.596 265.738,3.392C265.648,3.343 265.555,3.3 265.459,3.263C265.089,3.109 264.695,3.018 264.295,2.993C263.867,2.963 263.438,3.006 263.024,3.119C262.777,3.186 262.536,3.278 262.306,3.392C261.976,3.56 261.672,3.775 261.402,4.028C261.343,4.085 261.286,4.141 261.226,4.204C260.558,4.919 260.185,5.861 260.185,6.84L260.185,8.073C240.768,4.176 220.771,4.176 201.355,8.073L201.355,6.965C201.36,5.94 200.972,4.952 200.272,4.204C199.967,3.871 199.605,3.596 199.202,3.392C199.111,3.344 199.016,3.301 198.92,3.263C198.55,3.109 198.156,3.018 197.756,2.993C197.328,2.963 196.899,3.006 196.485,3.119C196.239,3.186 195.999,3.278 195.77,3.392C195.439,3.559 195.133,3.774 194.863,4.028C194.804,4.085 194.747,4.141 194.691,4.204C194.021,4.918 193.647,5.86 193.646,6.84L193.646,9.814C193.022,9.971 192.394,10.131 191.77,10.297L191.619,10.338L191.619,10.492C191.617,11.773 191.899,13.04 192.444,14.2L192.858,14.966C193.632,16.26 194.728,17.333 196.039,18.077C197.351,18.822 198.833,19.213 200.341,19.214L202.98,19.214L202.98,47.749C202.974,48.211 203.139,48.659 203.443,49.007C203.747,49.355 204.168,49.578 204.627,49.634C204.881,49.66 205.137,49.632 205.379,49.552C205.621,49.472 205.844,49.342 206.033,49.17C206.22,48.998 206.37,48.789 206.473,48.557C206.575,48.324 206.628,48.072 206.629,47.818L206.629,19.427C207.434,19.646 208.185,20.033 208.831,20.561C209.477,21.09 210.004,21.749 210.378,22.496C210.613,22.964 210.883,23.415 211.184,23.845C212.125,25.176 213.373,26.261 214.821,27.009C216.27,27.757 217.878,28.144 219.508,28.14L242.035,28.14C243.75,28.142 245.439,27.719 246.951,26.91C248.442,26.12 249.701,24.954 250.603,23.528C250.791,23.228 250.962,22.918 251.114,22.599C251.479,21.827 252.008,21.143 252.663,20.595C253.319,20.047 254.086,19.649 254.911,19.427L254.911,47.749C254.905,48.211 255.07,48.659 255.374,49.007C255.678,49.355 256.099,49.578 256.558,49.634C256.618,49.641 256.679,49.644 256.74,49.644C257.194,49.644 257.631,49.475 257.967,49.17C258.154,48.998 258.303,48.789 258.406,48.556C258.509,48.324 258.562,48.072 258.563,47.818L258.563,19.214L261.198,19.214C262.707,19.214 264.189,18.822 265.501,18.078C266.812,17.333 267.908,16.261 268.681,14.966C268.832,14.718 268.97,14.462 269.095,14.2C269.641,13.04 269.924,11.774 269.923,10.492L269.923,10.338L269.773,10.297Z" fill="#FFA500"/>
<path d="M229.959,31.995C235.337,31.995 239.696,27.635 239.696,22.258C239.696,16.88 235.337,12.52 229.959,12.52C224.581,12.52 220.222,16.88 220.222,22.258C220.222,27.635 224.581,31.995 229.959,31.995Z" fill="#000080"/>
<path d="M229.959,27.451C232.827,27.451 235.152,25.126 235.152,22.258C235.152,19.389 232.827,17.064 229.959,17.064C227.091,17.064 224.766,19.389 224.766,22.258C224.766,25.126 227.091,27.451 229.959,27.451Z" fill="#FFA500"/>
<path d="M278.241,1.362L265.459,1.362L265.459,3.392L280.462,3.392C280.411,2.837 280.155,2.322 279.744,1.947C279.333,1.572 278.797,1.363 278.241,1.362Z" fill="#FFA500"/>
<path d="M250.245,1.362C249.689,1.363 249.153,1.572 248.742,1.947C248.33,2.323 248.074,2.837 248.021,3.392L263.024,3.392L263.024,1.362L250.245,1.362Z" fill="#FFA500"/>
<path d="M267.436,3.392C267.291,2.6 266.876,1.882 266.262,1.362C265.8,0.971 265.243,0.709 264.647,0.602C264.051,0.495 263.438,0.547 262.868,0.753C262.299,0.959 261.794,1.311 261.405,1.774C261.015,2.238 260.754,2.795 260.649,3.392C260.61,3.592 260.59,3.796 260.59,4L260.59,4.204L267.489,4.204L267.489,4C267.487,3.796 267.469,3.593 267.436,3.392Z" fill="#000080"/>
<path d="M211.702,1.362L198.92,1.362L198.92,3.392L213.923,3.392C213.872,2.837 213.616,2.322 213.205,1.947C212.794,1.572 212.258,1.363 211.702,1.362Z" fill="#FFA500"/>
<path d="M183.706,1.362C183.15,1.363 182.614,1.572 182.202,1.947C181.791,2.323 181.534,2.837 181.482,3.392L196.485,3.392L196.485,1.362L183.706,1.362Z" fill="#FFA500"/>
<path d="M200.896,3.392C200.755,2.594 200.338,1.872 199.718,1.352C199.097,0.831 198.313,0.546 197.503,0.546C196.694,0.546 195.91,0.831 195.289,1.352C194.669,1.872 194.251,2.594 194.11,3.392C194.072,3.592 194.053,3.796 194.054,4L194.054,4.204L200.95,4.204L200.95,4C200.948,3.796 200.93,3.593 200.896,3.392Z" fill="#000080"/>
<path d="M192.446,14.2C217.892,10.954 243.648,10.954 269.095,14.2C268.97,14.462 268.832,14.718 268.681,14.967C256.19,13.384 243.613,12.586 231.022,12.577L231.014,12.577C230.296,12.577 229.574,12.577 228.855,12.585L228.843,12.585C216.812,12.659 204.796,13.454 192.86,14.967L192.446,14.2Z" fill="#000080"/>
<path d="M216.709,75.67C216.664,75.67 216.619,75.665 216.575,75.655L203.998,72.815C203.92,72.797 203.846,72.764 203.781,72.718C203.715,72.672 203.66,72.614 203.617,72.546C203.574,72.479 203.545,72.403 203.532,72.325C203.518,72.246 203.52,72.165 203.538,72.087C203.555,72.009 203.588,71.935 203.634,71.87C203.68,71.805 203.739,71.749 203.806,71.707C203.874,71.664 203.949,71.635 204.028,71.621C204.107,71.608 204.188,71.61 204.266,71.627L216.843,74.467C216.989,74.5 217.118,74.586 217.205,74.708C217.291,74.83 217.33,74.98 217.314,75.128C217.297,75.277 217.226,75.415 217.115,75.515C217.004,75.614 216.859,75.67 216.709,75.67Z" fill="#FFA500"/>
<path d="M213.464,67.961C213.418,67.961 213.373,67.956 213.329,67.946L200.752,65.106C200.594,65.071 200.458,64.974 200.371,64.837C200.285,64.701 200.257,64.536 200.292,64.378C200.328,64.221 200.424,64.084 200.561,63.998C200.697,63.912 200.862,63.883 201.02,63.919L213.597,66.759C213.743,66.792 213.872,66.877 213.959,66.999C214.046,67.121 214.085,67.271 214.068,67.42C214.051,67.568 213.981,67.706 213.869,67.806C213.758,67.906 213.613,67.961 213.464,67.961Z" fill="#FFA500"/>
</svg>
