<svg width="456" height="200" viewBox="0 0 456 200" fill="none" xmlns="http://www.w3.org/2000/svg" xmlns:xlink="http://www.w3.org/1999/xlink">
<path d="M135.203,164.674C133.641,176.915 127.895,188.115 121.766,198.903C121.564,199.271 121.355,199.633 121.142,200L57.441,200C56.152,199.665 54.88,199.298 53.614,198.903C46.419,196.713 39.627,193.371 33.501,189.008C10.065,172.124 1.047,140.218 5.12,111.63C7.653,93.868 15.448,75.734 30.628,66.167C38.643,61.108 48.938,59.463 58.164,61.343C58.406,61.387 58.647,61.442 58.893,61.491C66.831,63.278 73.903,67.719 77.927,74.873C85.163,87.728 80.854,103.653 77.297,117.961C73.75,132.27 71.825,149.395 82.121,159.948C78.722,149.944 82.077,138.009 90.196,131.244C96.33,126.141 104.871,124.227 112.661,125.812C113.406,125.971 114.141,126.152 114.865,126.371C116.614,126.883 118.3,127.589 119.892,128.476C132.034,135.257 136.952,150.876 135.203,164.674Z" fill="#309F30"/>
<path d="M97.432,198.904C99.197,199.315 100.968,199.676 102.749,200L93.117,200C91.856,199.66 90.601,199.298 89.357,198.904C86.621,198.048 83.928,197.067 81.276,195.96C70.641,191.497 60.845,184.798 53.433,175.885C49.808,171.566 46.848,166.73 44.651,161.538C42.268,155.669 40.754,149.485 40.156,143.179C38.813,130.241 40.183,116.947 42.743,104.24C45.385,91.07 49.65,78.277 55.44,66.156C56.136,64.704 56.856,63.26 57.6,61.826C57.651,61.708 57.728,61.603 57.826,61.519C57.924,61.436 58.039,61.375 58.164,61.343C58.417,61.294 58.679,61.347 58.893,61.491C59.15,61.639 59.34,61.879 59.425,62.162C59.51,62.446 59.482,62.751 59.348,63.015C53.379,74.657 48.854,86.984 45.873,99.723C42.957,112.151 41.301,125.154 41.866,137.933C42.403,149.872 45.523,161.615 52.6,171.378C59.063,180.292 67.988,187.32 77.861,192.106C84.11,195.096 90.675,197.376 97.432,198.904Z" fill="#FFFFFF"/>
<path d="M118.571,200L115.731,200C115.413,199.638 115.106,199.271 114.804,198.904C108.336,191.045 103.954,181.681 102.064,171.68C99.768,159.199 101.554,146.31 107.157,134.923C108.72,131.73 110.562,128.681 112.661,125.812C113.406,125.971 114.141,126.152 114.865,126.371C109.343,133.686 105.63,142.203 104.027,151.226C102.597,159.682 103.072,168.35 105.418,176.598C107.765,184.846 111.923,192.467 117.589,198.904C117.907,199.271 118.236,199.638 118.571,200Z" fill="#FFFFFF"/>
<path d="M374.383,190.677C374.796,193.908 376.312,196.863 377.929,199.711C377.983,199.808 378.038,199.903 378.094,200L394.906,200C395.246,199.912 395.582,199.815 395.916,199.711C397.815,199.133 399.608,198.251 401.224,197.099C407.409,192.643 409.79,184.223 408.714,176.678C408.046,171.99 405.989,167.204 401.983,164.679C399.807,163.354 397.212,162.899 394.715,163.406C394.652,163.418 394.588,163.432 394.523,163.445C393.484,163.646 392.499,164.064 391.633,164.673C390.767,165.282 390.04,166.067 389.499,166.977C387.59,170.369 388.727,174.572 389.666,178.349C390.602,182.125 391.11,186.645 388.393,189.43C388.791,188.265 388.872,187.015 388.627,185.809C388.382,184.603 387.821,183.483 387,182.566C386.179,181.648 385.129,180.966 383.957,180.589C382.785,180.212 381.534,180.154 380.333,180.42C380.136,180.462 379.942,180.51 379.751,180.568C379.289,180.703 378.844,180.89 378.424,181.124C375.22,182.913 373.922,187.035 374.383,190.677Z" fill="#309F30"/>
<path d="M384.352,199.711C383.886,199.819 383.419,199.915 382.948,200L385.49,200C385.823,199.91 386.154,199.815 386.483,199.711C387.205,199.485 387.916,199.226 388.615,198.934C391.454,197.781 393.974,195.964 395.964,193.635C396.92,192.496 397.702,191.22 398.282,189.849C398.91,188.3 399.31,186.668 399.468,185.004C399.756,181.563 399.526,178.099 398.785,174.727C398.088,171.251 396.962,167.875 395.434,164.676C395.25,164.293 395.06,163.912 394.864,163.533C394.851,163.502 394.83,163.474 394.804,163.452C394.779,163.43 394.748,163.414 394.715,163.406C394.648,163.393 394.579,163.407 394.523,163.445C394.455,163.484 394.405,163.547 394.382,163.622C394.36,163.697 394.367,163.778 394.403,163.847C395.978,166.92 397.172,170.173 397.959,173.535C398.769,176.833 399.125,180.225 399.017,183.619C398.959,186.776 397.974,189.846 396.184,192.446C394.443,194.788 392.154,196.667 389.517,197.917C387.868,198.706 386.135,199.307 384.352,199.711Z" fill="#FFFFFF"/>
<path d="M378.773,200L379.522,200C379.606,199.904 379.687,199.808 379.767,199.711C381.474,197.636 382.63,195.165 383.129,192.526C383.735,189.232 383.264,185.83 381.785,182.825C381.373,181.982 380.886,181.178 380.333,180.42C380.136,180.462 379.942,180.51 379.751,180.568C381.208,182.499 382.188,184.746 382.611,187.128C382.989,189.359 382.863,191.647 382.244,193.824C381.625,196.001 380.527,198.012 379.032,199.711C378.948,199.808 378.861,199.904 378.773,200Z" fill="#FFFFFF"/>
<path d="M222.849,116.497L170.232,116.497L169.675,100.32C169.651,99.618 169.779,98.92 170.05,98.273C170.322,97.626 170.73,97.046 171.248,96.571C171.765,96.097 172.379,95.741 173.047,95.527C173.716,95.313 174.422,95.246 175.119,95.332L205.738,99.081L205.742,99.081C210.282,99.093 214.631,100.904 217.838,104.118C221.044,107.331 222.846,111.684 222.849,116.223L222.849,116.497Z" fill="#FFA500"/>
<path d="M199.398,59.112L162.7,59.112C162.212,59.112 161.729,59.208 161.278,59.395C160.827,59.581 160.417,59.855 160.072,60.2C159.727,60.545 159.453,60.955 159.267,61.406C159.08,61.857 158.984,62.34 158.984,62.828L158.984,99.526C158.984,100.014 159.08,100.497 159.267,100.948C159.453,101.399 159.727,101.809 160.072,102.154C160.417,102.499 160.827,102.773 161.278,102.96C161.729,103.146 162.212,103.242 162.7,103.242L199.398,103.242C199.886,103.242 200.369,103.146 200.82,102.96C201.271,102.773 201.681,102.499 202.026,102.154C202.371,101.809 202.645,101.399 202.832,100.948C203.018,100.497 203.114,100.014 203.114,99.526L203.114,62.828C203.114,62.34 203.018,61.857 202.832,61.406C202.645,60.955 202.371,60.545 202.026,60.2C201.681,59.855 201.271,59.581 200.82,59.395C200.369,59.208 199.886,59.112 199.398,59.112Z" fill="#CCCCCC"/>
<path d="M191.133,86.553L173.806,89.927C172.779,90.126 171.714,89.91 170.846,89.324C169.978,88.739 169.377,87.834 169.176,86.806L167.844,79.967C167.645,78.939 167.862,77.875 168.447,77.006C169.032,76.138 169.938,75.538 170.965,75.337L188.292,71.962C189.319,71.763 190.384,71.98 191.252,72.565C192.12,73.151 192.721,74.056 192.922,75.083L194.254,81.923C194.453,82.951 194.236,84.015 193.651,84.883C193.066,85.751 192.16,86.352 191.133,86.553Z" fill="#000080"/>
<path d="M187.667,78.473L174.444,81.048C174.202,81.095 173.951,81.044 173.747,80.907C173.542,80.769 173.401,80.556 173.354,80.314C173.307,80.072 173.358,79.821 173.496,79.617C173.633,79.413 173.847,79.271 174.088,79.224L187.311,76.649C187.553,76.602 187.804,76.653 188.008,76.791C188.213,76.929 188.354,77.142 188.401,77.384C188.448,77.625 188.397,77.876 188.259,78.08C188.122,78.285 187.908,78.426 187.667,78.473Z" fill="#FFFFFF"/>
<path d="M185.096,82.286L178.257,83.618C178.015,83.665 177.764,83.615 177.56,83.477C177.356,83.339 177.214,83.126 177.167,82.884C177.12,82.642 177.171,82.391 177.309,82.187C177.447,81.983 177.66,81.842 177.902,81.794L184.741,80.463C184.861,80.439 184.984,80.44 185.104,80.464C185.223,80.488 185.337,80.536 185.438,80.604C185.539,80.672 185.626,80.76 185.693,80.861C185.761,80.963 185.807,81.077 185.831,81.197C185.854,81.317 185.854,81.44 185.829,81.559C185.805,81.679 185.757,81.793 185.689,81.894C185.621,81.995 185.534,82.082 185.432,82.149C185.33,82.216 185.216,82.263 185.096,82.286Z" fill="#FFFFFF"/>
<path d="M203.114,62.828L203.114,67.706L158.984,67.706L158.984,62.828C158.984,62.34 159.08,61.857 159.267,61.406C159.453,60.955 159.727,60.545 160.072,60.2C160.417,59.855 160.827,59.581 161.278,59.395C161.729,59.208 162.212,59.112 162.7,59.112L199.398,59.112C199.886,59.112 200.369,59.208 200.82,59.395C201.271,59.581 201.681,59.855 202.026,60.2C202.371,60.545 202.645,60.955 202.832,61.406C203.018,61.857 203.114,62.34 203.114,62.828Z" fill="#B3B3B3"/>
<path d="M291.238,69.233C290.983,68.411 290.551,67.654 289.972,67.017C289.394,66.38 288.682,65.877 287.888,65.544C287.094,65.212 286.237,65.057 285.376,65.092C284.516,65.126 283.674,65.349 282.909,65.744L232.422,47.63L230.198,60.243L280.525,74.082C281.274,75.323 282.452,76.246 283.836,76.676C285.221,77.106 286.714,77.014 288.035,76.416C289.356,75.819 290.411,74.757 291.001,73.433C291.592,72.11 291.676,70.615 291.238,69.233Z" fill="#FFB8B8"/>
<g opacity="0.2">
<path d="M291.238,69.233C290.983,68.411 290.551,67.654 289.972,67.017C289.394,66.38 288.682,65.877 287.888,65.544C287.094,65.212 286.237,65.057 285.376,65.092C284.516,65.126 283.674,65.349 282.909,65.744L232.422,47.63L230.198,60.243L280.525,74.082C281.274,75.323 282.452,76.246 283.836,76.676C285.221,77.106 286.714,77.014 288.035,76.416C289.356,75.819 290.411,74.757 291.001,73.433C291.592,72.11 291.676,70.615 291.238,69.233Z" fill="#000000"/>
</g>
<path d="M241.383,49.928L236.615,62.384C236.48,62.738 236.269,63.059 235.998,63.325C235.727,63.59 235.402,63.795 235.045,63.923C234.688,64.052 234.308,64.102 233.93,64.071C233.552,64.039 233.185,63.927 232.854,63.741L221.267,57.219C219.458,56.515 218.002,55.122 217.219,53.346C216.435,51.569 216.388,49.555 217.087,47.744C217.786,45.933 219.175,44.473 220.949,43.684C222.723,42.896 224.737,42.843 226.55,43.537L239.489,46.407C239.86,46.489 240.208,46.65 240.511,46.879C240.813,47.108 241.063,47.4 241.242,47.734C241.422,48.068 241.528,48.437 241.552,48.816C241.576,49.194 241.519,49.574 241.383,49.928Z" fill="#FFA500"/>
<path d="M295.212,80.766L277.121,88.989L279.497,97.931C284.083,115.198 285.3,133.187 283.082,150.914L296.308,153.677L307.273,125.719L303.435,93.923L295.212,80.766Z" fill="#FFA500"/>
<path d="M330.708,122.155C318.822,122.155 309.136,130.796 308.666,141.616L352.751,141.616C352.281,130.796 342.594,122.155 330.708,122.155Z" fill="#000080"/>
<path d="M321.455,124.02C320.837,75.176 293.019,79.67 293.019,79.67C293.019,79.67 293.54,94.873 293.79,95.346C311.516,128.885 282.261,168.204 245.022,160.971C244.32,160.834 243.645,160.696 242.998,160.556C238.28,159.57 234.114,156.825 231.347,152.877C228.581,148.93 227.422,144.077 228.107,139.306C231.775,109.848 213.53,110.369 213.53,110.369L186.851,110.369L172.996,97.9C172.507,97.459 171.918,97.146 171.279,96.986C170.641,96.826 169.973,96.826 169.335,96.984C168.696,97.142 168.106,97.454 167.615,97.892C167.125,98.331 166.75,98.884 166.523,99.501L164.74,104.339C164.74,104.339 138.426,107.08 140.619,132.845L148.754,132.845C148.735,133.577 148.764,134.31 148.842,135.038L209.556,134.545C213.115,134.516 216.256,137.399 216.271,140.958C216.275,141.825 216.104,142.683 215.768,143.482C215.432,144.281 214.939,145.003 214.317,145.607C213.696,146.211 212.959,146.683 212.151,146.995C211.342,147.308 210.479,147.454 209.613,147.425L199.825,147.099C196.81,160.53 204.211,169.575 212.365,175.262C220.043,180.54 229.153,183.338 238.469,183.28L265.061,183.28C299.598,183.28 305.628,154.225 305.628,154.225C323.719,146.55 321.455,124.02 321.455,124.02Z" fill="#000080"/>
<path d="M329.064,199.178C346.094,199.178 359.9,185.372 359.9,168.341C359.9,151.311 346.094,137.505 329.064,137.505C312.033,137.505 298.227,151.311 298.227,168.341C298.227,185.372 312.033,199.178 329.064,199.178Z" fill="#000080"/>
<path d="M329.064,175.899C333.238,175.899 336.621,172.515 336.621,168.341C336.621,164.167 333.238,160.783 329.064,160.783C324.889,160.783 321.506,164.167 321.506,168.341C321.506,172.515 324.889,175.899 329.064,175.899Z" fill="#FFFFFF"/>
<path d="M173.374,199.178C192.978,199.178 208.87,183.286 208.87,163.682C208.87,144.078 192.978,128.186 173.374,128.186C153.77,128.186 137.878,144.078 137.878,163.682C137.878,183.286 153.77,199.178 173.374,199.178Z" fill="#000080"/>
<path d="M173.374,172.382C178.179,172.382 182.074,168.486 182.074,163.682C182.074,158.877 178.179,154.982 173.374,154.982C168.569,154.982 164.674,158.877 164.674,163.682C164.674,168.486 168.569,172.382 173.374,172.382Z" fill="#FFFFFF"/>
<path d="M277.173,91.419L270.664,73.74C270.325,72.818 270.17,71.839 270.209,70.858C270.249,69.877 270.481,68.913 270.892,68.022C271.304,67.13 271.887,66.329 272.609,65.663C273.33,64.997 274.176,64.479 275.097,64.14L293.758,57.27C295.379,56.673 297.102,56.402 298.828,56.47C300.555,56.539 302.25,56.948 303.819,57.672C305.387,58.396 306.798,59.422 307.97,60.691C309.142,61.961 310.052,63.449 310.649,65.07C311.187,66.525 311.462,68.064 311.461,69.616C311.454,71.586 311.008,73.529 310.156,75.306C309.304,77.082 308.066,78.645 306.534,79.884C305.427,80.772 304.183,81.473 302.85,81.961L277.173,91.419Z" fill="#000080"/>
<path d="M311.187,69.616C311.185,71.545 310.751,73.45 309.916,75.19C309.081,76.93 307.867,78.461 306.362,79.67C304.054,79.061 301.906,77.957 300.068,76.434C298.23,74.911 296.745,73.006 295.717,70.851C294.689,68.697 294.143,66.344 294.117,63.957C294.09,61.57 294.584,59.206 295.563,57.029C297.443,56.62 299.391,56.637 301.264,57.08C303.137,57.522 304.887,58.379 306.385,59.586C307.884,60.793 309.093,62.32 309.924,64.056C310.754,65.792 311.186,67.691 311.187,69.616Z" fill="#FFA500"/>
<path d="M145.279,136.409C149.518,136.409 152.954,132.236 152.954,127.089C152.954,121.942 149.518,117.77 145.279,117.77C141.04,117.77 137.604,121.942 137.604,127.089C137.604,132.236 141.04,136.409 145.279,136.409Z" fill="#FFA500"/>
<path d="M246.73,160.078L253.451,160.078L256.648,142.647L246.729,142.647L246.73,160.078Z" fill="#FFB8B8"/>
<path d="M245.015,157.884L258.251,157.883L258.252,157.883C259.359,157.883 260.456,158.101 261.479,158.525C262.503,158.949 263.433,159.57 264.216,160.353C264.999,161.137 265.621,162.066 266.044,163.09C266.468,164.113 266.687,165.21 266.687,166.318L266.687,166.592L245.016,166.593L245.015,157.884Z" fill="#2F2E41"/>
<path d="M254.531,152.923C254.453,152.923 254.374,152.92 254.295,152.912L244.994,152.235C244.618,152.2 244.255,152.079 243.933,151.882C243.611,151.684 243.338,151.416 243.136,151.096C242.935,150.777 242.809,150.416 242.769,150.04C242.729,149.664 242.776,149.284 242.906,148.93L255.353,120.963C255.442,120.714 255.479,120.449 255.46,120.185C255.442,119.921 255.369,119.664 255.246,119.429C255.123,119.192 254.952,118.983 254.743,118.817C254.534,118.651 254.292,118.531 254.034,118.464C248.18,116.934 233.163,112.86 220.162,108.093C214.593,106.051 211.085,103.1 209.736,99.321C207.958,94.34 210.588,89.797 210.701,89.606L210.789,89.457L223.022,90.569L236.284,91.697L265.346,107.281C267.781,108.598 269.631,110.784 270.527,113.403C271.423,116.023 271.299,118.883 270.18,121.416L256.782,151.461C256.588,151.897 256.272,152.266 255.873,152.526C255.473,152.785 255.007,152.923 254.531,152.923Z" fill="#2F2E41"/>
<path d="M225.149,35.239C232.586,35.239 238.614,29.211 238.614,21.775C238.614,14.339 232.586,8.31 225.149,8.31C217.713,8.31 211.685,14.339 211.685,21.775C211.685,29.211 217.713,35.239 225.149,35.239Z" fill="#FFB8B8"/>
<path d="M242.892,161.722L249.613,161.722L252.811,144.291L242.891,144.292L242.892,161.722Z" fill="#FFB8B8"/>
<path d="M241.178,159.528L254.414,159.528L254.414,159.528C255.522,159.527 256.619,159.746 257.642,160.17C258.665,160.593 259.595,161.215 260.379,161.998C261.162,162.781 261.783,163.711 262.207,164.734C262.631,165.758 262.849,166.855 262.849,167.962L262.849,168.236L241.178,168.237L241.178,159.528Z" fill="#2F2E41"/>
<path d="M250.693,154.568C250.615,154.568 250.537,154.564 250.458,154.557L241.157,153.88C240.78,153.845 240.417,153.724 240.095,153.526C239.773,153.329 239.501,153.06 239.299,152.741C239.097,152.422 238.971,152.06 238.931,151.685C238.891,151.309 238.938,150.929 239.068,150.574L251.516,122.608C251.605,122.359 251.641,122.094 251.623,121.83C251.604,121.566 251.531,121.308 251.408,121.074C251.286,120.836 251.115,120.628 250.906,120.462C250.697,120.295 250.455,120.175 250.196,120.109C244.343,118.579 229.325,114.505 216.325,109.738C210.755,107.696 207.247,104.744 205.899,100.966C204.121,95.984 206.751,91.441 206.864,91.251L206.952,91.101L219.185,92.213L232.447,93.341L261.509,108.925C263.944,110.242 265.794,112.428 266.69,115.048C267.585,117.667 267.462,120.528 266.343,123.06L252.945,153.106C252.751,153.541 252.435,153.911 252.035,154.17C251.636,154.43 251.17,154.568 250.693,154.568Z" fill="#2F2E41"/>
<path d="M229.302,42.874L215.049,37.94C215.049,37.94 206.101,44.815 210.399,61.868C212.643,70.669 211.99,79.958 208.535,88.358C208.12,89.397 207.64,90.41 207.1,91.39C207.1,91.39 222.998,110.577 237.799,96.324L232.043,68.64C232.043,68.64 241.088,50.275 229.302,42.874Z" fill="#FFA500"/>
<path d="M226.821,35.697C224.905,32.829 223.393,28.851 225.502,26.122C227.585,23.428 231.693,23.825 234.882,22.633C239.325,20.973 241.902,15.754 241.098,11.079C240.295,6.405 236.542,2.53 232.072,0.945C227.603,-0.64 222.562,-0.125 218.185,1.701C212.796,3.948 208.174,8.296 206.236,13.803C204.297,19.31 205.334,25.923 209.355,30.156C213.666,34.694 220.431,35.903 226.69,35.83Z" fill="#2F2E41"/>
<path d="M214.296,11.229C211.882,13.195 208.198,12.322 205.605,10.597C203.013,8.872 200.91,6.415 198.105,5.062C193.161,2.678 187.183,4.263 182.371,6.904C177.559,9.546 173.293,13.195 168.21,15.268C163.127,17.341 156.641,17.443 152.792,13.529C151.845,16.273 151.768,19.243 152.571,22.033C153.374,24.822 155.018,27.297 157.279,29.118C159.539,30.939 162.307,32.018 165.204,32.208C168.101,32.397 170.986,31.689 173.465,30.179C179.034,26.786 182.111,19.673 188.357,17.801C191.814,16.765 195.526,17.599 199.02,18.503C202.513,19.407 206.156,20.384 209.682,19.614C213.207,18.845 216.505,15.676 216.057,12.096L214.296,11.229Z" fill="#2F2E41"/>
<path d="M290.568,68.685C290.214,67.9 289.692,67.203 289.039,66.642C288.386,66.081 287.618,65.669 286.789,65.437C285.96,65.205 285.09,65.158 284.24,65.298C283.391,65.438 282.582,65.763 281.872,66.25L229.536,54.504L228.885,67.294L280.535,74.819C281.431,75.958 282.715,76.728 284.141,76.984C285.568,77.24 287.039,76.964 288.276,76.208C289.513,75.452 290.429,74.269 290.851,72.882C291.274,71.496 291.173,70.002 290.568,68.685Z" fill="#FFB8B8"/>
<path d="M238.712,55.679L235.517,68.627C235.427,68.995 235.257,69.34 235.021,69.637C234.785,69.934 234.488,70.177 234.15,70.349C233.811,70.521 233.44,70.617 233.061,70.633C232.682,70.648 232.304,70.582 231.953,70.438L219.65,65.396C217.766,64.921 216.148,63.719 215.15,62.052C214.152,60.386 213.856,58.392 214.327,56.507C214.798,54.623 215.997,53.002 217.661,52.001C219.325,51 221.319,50.699 223.204,51.166L236.398,52.417C236.776,52.453 237.142,52.57 237.47,52.76C237.799,52.95 238.082,53.209 238.302,53.518C238.521,53.828 238.672,54.181 238.742,54.554C238.813,54.926 238.803,55.31 238.712,55.679Z" fill="#FFA500"/>
<path d="M284.522,78.847C286.642,78.847 288.36,77.129 288.36,75.01C288.36,72.891 286.642,71.173 284.522,71.173C282.403,71.173 280.685,72.891 280.685,75.01C280.685,77.129 282.403,78.847 284.522,78.847Z" fill="#FFA500"/>
<path d="M454.46,199.452C454.458,199.597 454.402,199.736 454.298,199.839C454.196,199.942 454.056,200 453.912,200L0.548,200C0.403,200 0.263,199.942 0.161,199.839C0.058,199.737 0,199.597 0,199.452C0,199.306 0.058,199.167 0.161,199.064C0.263,198.961 0.403,198.904 0.548,198.904L453.912,198.904C454.056,198.904 454.196,198.962 454.298,199.065C454.402,199.167 454.458,199.307 454.46,199.452Z" fill="#000080"/>
</svg>
