<svg width="48" height="48" viewBox="0 0 48 48" fill="none" xmlns="http://www.w3.org/2000/svg" xmlns:xlink="http://www.w3.org/1999/xlink">
<g opacity="0.4">
<path d="M24,44C33.577,44 41.34,36.237 41.34,26.66C41.34,17.083 33.577,9.32 24,9.32C14.423,9.32 6.66,17.083 6.66,26.66C6.66,36.237 14.423,44 24,44Z" fill="#FFFFFF"/>
</g>
<path d="M24,27.5C23.18,27.5 22.5,26.82 22.5,26L22.5,16C22.5,15.18 23.18,14.5 24,14.5C24.82,14.5 25.5,15.18 25.5,16L25.5,26C25.5,26.82 24.82,27.5 24,27.5Z" fill="#FFFFFF"/>
<path d="M29.78,6.9L18.22,6.9C17.42,6.9 16.78,6.26 16.78,5.46C16.78,4.66 17.42,4 18.22,4L29.78,4C30.58,4 31.22,4.64 31.22,5.44C31.22,6.24 30.58,6.9 29.78,6.9Z" fill="#FFFFFF"/>
</svg>
